# xmcd
# Copyright (C) 1995-1998 Ti Kan
#
# Track frame offsets:
#       150
#       26694
#       42678
#       62493
#       86295
#       105324
#       124108
#       145180
#       161615
#       181381
#       199050
#       228439
#       242935
#       272787
#       291244
#       308179
#       324132
#       344576
#
# Disc length: 4803 seconds
#
# Revision: 0
# Processed by: cddbd v1.5.2PL0 Copyright (c) Steve Scherf et al.
# Submitted via: CD-Transfer v1.0
#
DISCID=0412c112
DTITLE=2019 - 
DYEAR=19
DGENRE=
TTITLE0=Lark
TTITLE1=One Magic Moment
TTITLE2=Private Show
TTITLE3=Anemone
TTITLE4=Bags
TTITLE5=Everybody Here Hates You
TTITLE6=Hey You
TTITLE7=Rainbow Skinner
TTITLE8=My Wing
TTITLE9=Saying Goodbye
TTITLE10=Must I Evolve
TTITLE11=Turn The Light
TTITLE12=Silence, The
TTITLE13=Wolves, The
TTITLE14=Go Tell A Bird
TTITLE15=It All Comesout In The Wash
TTITLE16=Oman
TTITLE17=Wandering Star
EXTD=
EXTT0=
EXTT1=
EXTT2=
EXTT3=
EXTT4=
EXTT5=
EXTT6=
EXTT7=
EXTT8=
EXTT9=
EXTT10=
EXTT11=
EXTT12=
EXTT13=
EXTT14=
EXTT15=
EXTT16=
EXTT17=
PLAYORDER=
